#!OML:ASF F:\VICON\USERDATA\INSTALL\Justin_Nancy\Justin_Nancy.ASF
:FULLY-SPECIFIED
:DEGREES
158
root 0.10351 17.2382 19.6798 -6.19207 7.13202 -1.73652
lowerback 9.83817 -2.09034 -1.6109
upperback 0.258764 -2.78228 3.39982
thorax -5.00112 -1.29806 4.85882
lowerneck -17.8088 -3.92075 -10.2866
upperneck 18.9725 -4.12766 6.88583
head 9.27469 -1.93111 3.53385
rclavicle -5.15598e-015 2.22639e-014
rhumerus -44.0721 -27.7433 -63.7823
rradius 26.6383
rwrist 7.65054
rhand -15.6901 10.7405
rfingers 7.12502
rthumb 10.4991 -18.9773
lclavicle -5.15598e-015 2.22639e-014
lhumerus -24.3891 6.71831 85.534
lradius 30.8426
lwrist 3.49518
lhand -21.7319 25.4603
lfingers 7.12502
lthumb 4.66762 55.3889
rfemur -16.8954 1.97244 24.9766
rtibia 29.9686
rfoot -0.809029 -9.15783
rtoes 2.5
lfemur -13.3005 -4.67576 -16.7309
ltibia 66.8534
lfoot -9.64695 2.3781
ltoes -14.7683
159
root 0.0921792 17.2713 19.772 -5.98479 6.91022 -1.9898
lowerback 9.8922 -1.99623 -1.2537
upperback 0.144857 -2.61197 3.42846
thorax -5.18167 -1.21635 4.67107
lowerneck -17.6762 -3.93651 -10.3547
upperneck 19.2061 -4.17749 6.98512
head 9.3402 -1.95332 3.57795
rclavicle 1.38652e-014 -6.36111e-015
rhumerus -43.5069 -26.9382 -64.8095
rradius 27.3566
rwrist 6.21801
rhand -16.0728 10.8839
rfingers 7.12502
rthumb 10.1299 -18.8523
lclavicle 1.38652e-014 -6.36111e-015
lhumerus -24.6483 7.41797 85.3779
lradius 29.4871
lwrist 3.18303
lhand -21.0102 28.0444
lfingers 7.12502
lthumb 5.36451 57.9565
rfemur -16.5508 2.35355 25.3786
rtibia 29.5185
rfoot -0.821217 -9.36247
rtoes 2.75578
lfemur -14.5711 -4.16617 -16.4783
ltibia 66.9691
lfoot -10.1442 2.22348
ltoes -12.851
160
root 0.0876122 17.2965 19.8637 -5.76251 6.66835 -1.77049
lowerback 9.81985 -1.85317 -1.30649
upperback 0.272708 -2.43467 3.33944
thorax -5.02379 -1.1333 4.57441
lowerneck -18.2765 -4.03245 -10.6021
upperneck 19.6649 -4.26616 7.28706
head 9.63182 -1.9732 3.7187
rclavicle 1.54244e-014 -2.38542e-015
rhumerus -42.451 -26.3618 -66.031
rradius 28.2292
rwrist 4.95287
rhand -16.7221 10.8734
rfingers 7.12502
rthumb 9.50346 -18.8923
lclavicle 1.54244e-014 -2.38542e-015
lhumerus -24.6623 8.04178 85.3158
lradius 28.5365
lwrist 2.62526
lhand -19.8679 31.6299
lfingers 7.12502
lthumb 6.46732 61.5111
rfemur -16.2742 2.7364 25.253
rtibia 29.2263
rfoot -0.928821 -9.505
rtoes 2.57311
lfemur -15.5179 -3.64674 -16.8992
ltibia 66.858
lfoot -10.9149 2.26021
ltoes -12.4389
161
root 0.0821318 17.3122 19.954 -5.64169 6.49416 -1.50357
lowerback 9.74726 -1.73417 -1.43079
upperback 0.481107 -2.30183 3.18365
thorax -4.77728 -1.07408 4.45185
lowerneck -18.6118 -4.08778 -10.4792
upperneck 19.8504 -4.35007 7.28383
head 9.76406 -1.99839 3.68669
rclavicle -7.58477e-015 -3.02153e-014
rhumerus -41.4364 -25.7613 -67.3144
rradius 29.2262
rwrist 3.88193
rhand -17.1377 11.8337
rfingers 7.12502
rthumb 9.10246 -17.9499
lclavicle -7.58477e-015 -3.02153e-014
lhumerus -24.666 8.62566 85.1215
lradius 27.7307
lwrist 1.36885
lhand -17.7614 31.8085
lfingers 7.12502
lthumb 8.50063 61.6174
rfemur -16.012 3.05429 25.0763
rtibia 29.1529
rfoot -1.12805 -9.7081
rtoes 2.73782
lfemur -16.3046 -3.16594 -17.3619
ltibia 66.5747
lfoot -11.7948 1.96231
ltoes -11.6102
162
root 0.0826106 17.3309 20.0449 -5.4677 6.33435 -1.39932
lowerback 9.64852 -1.65034 -1.28965
upperback 0.482703 -2.18162 3.04708
thorax -4.74105 -1.01965 4.20741
lowerneck -18.4181 -4.07101 -10.3568
upperneck 19.9528 -4.37152 7.2151
head 9.76189 -2.01121 3.64153
rclavicle 2.91654e-015 1.27222e-014
rhumerus -40.9647 -24.7114 -68.524
rradius 30.5058
rwrist 2.8326
rhand -17.2713 12.2271
rfingers 7.12502
rthumb 8.97358 -17.562
lclavicle 2.91654e-015 1.27222e-014
lhumerus -25.0336 9.04343 84.8429
lradius 26.8896
lwrist -0.307024
lhand -16.7527 31.6968
lfingers 7.12502
lthumb 9.47395 61.4638
rfemur -15.8615 3.14142 25.0383
rtibia 29.2449
rfoot -1.53258 -9.73771
rtoes 3.2471
lfemur -17.1165 -2.64883 -17.6762
ltibia 66.1092
lfoot -12.7189 1.49186
ltoes -11.0834
163
root 0.086905 17.3454 20.1375 -5.27406 6.15015 -1.3768
lowerback 9.63374 -1.60505 -1.03874
upperback 0.344961 -2.09588 2.95756
thorax -4.89625 -0.979201 3.96338
lowerneck -17.9516 -4.03113 -10.332
upperneck 19.8581 -4.35579 7.16148
head 9.63917 -2.01597 3.62147
rclavicle 7.98182e-015 3.97569e-015
rhumerus -40.6958 -23.2679 -69.6788
rradius 31.9268
rwrist 1.90175
rhand -16.9493 11.262
rfingers 7.12502
rthumb 9.2843 -18.5136
lclavicle 7.98182e-015 3.97569e-015
lhumerus -25.7892 9.72047 84.4791
lradius 26.212
lwrist -2.39985
lhand -17.7111 26.1939
lfingers 7.12502
lthumb 8.54918 56.0008
rfemur -15.7936 3.09817 25.073
rtibia 29.4429
rfoot -1.95697 -9.64558
rtoes 3.3168
lfemur -17.8472 -2.09232 -17.9145
ltibia 65.5081
lfoot -13.7886 1.04956
ltoes -11.0766
164
root 0.0855047 17.3475 20.2287 -5.1666 5.97715 -1.53325
lowerback 9.64487 -1.54336 -0.637135
upperback 0.361537 -1.97172 2.90917
thorax -4.90953 -0.927196 3.66851
lowerneck -17.7904 -4.03073 -10.3564
upperneck 19.6667 -4.36484 7.19648
head 9.54463 -2.01936 3.63434
rclavicle 3.81061e-014 -3.97569e-015
rhumerus -40.0941 -22.039 -70.8863
rradius 33.2815
rwrist 1.36181
rhand -16.1844 9.94017
rfingers 7.12502
rthumb 10.0222 -19.8012
lclavicle 3.81061e-014 -3.97569e-015
lhumerus -26.4072 9.69954 84.3588
lradius 25.8202
lwrist -3.85825
lhand -18.3659 21.8741
lfingers 7.12502
lthumb 7.91718 51.7058
rfemur -15.7191 3.18529 25.3365
rtibia 29.7065
rfoot -2.38744 -9.71628
rtoes 3.12876
lfemur -18.4789 -1.4605 -17.906
ltibia 64.7989
lfoot -14.8124 0.784559
ltoes -12.4438
165
root 0.0852842 17.347 20.3103 -4.92188 5.8182 -1.48288
lowerback 9.50517 -1.43192 -0.46237
upperback 0.501068 -1.81189 2.83616
thorax -4.70345 -0.85683 3.46225
lowerneck -18.1402 -4.04287 -10.3843
upperneck 19.7244 -4.33813 7.19632
head 9.62731 -2.0028 3.6417
rclavicle -1.28651e-014 5.56597e-015
rhumerus -39.302 -21.1181 -71.8952
rradius 34.6692
rwrist 1.23867
rhand -15.2296 9.77294
rfingers 7.12502
rthumb 10.9433 -19.9219
lclavicle -1.28651e-014 5.56597e-015
lhumerus -26.7189 9.34174 84.4582
lradius 25.5607
lwrist -4.87367
lhand -18.3634 20.4376
lfingers 7.12502
lthumb 7.91958 50.2692
rfemur -15.8454 3.32227 25.3602
rtibia 30.023
rfoot -2.73608 -9.79989
rtoes 3.37114
lfemur -19.3161 -0.884224 -18.1298
ltibia 63.9958
lfoot -15.8526 0.387939
ltoes -13.0201
166
root 0.0950383 17.3474 20.3933 -4.66403 5.66468 -1.17757
lowerback 9.42817 -1.34584 -0.451862
upperback 0.495926 -1.7045 2.682
thorax -4.67719 -0.80574 3.27786
lowerneck -18.0366 -4.03787 -10.289
upperneck 19.6435 -4.32123 7.00913
head 9.5718 -2.00957 3.56068
rclavicle -4.7112e-014 2.38542e-014
rhumerus -38.8389 -20.0437 -72.7118
rradius 35.9394
rwrist 1.16679
rhand -14.6821 10.9382
rfingers 7.12502
rthumb 11.4713 -18.728
lclavicle -4.7112e-014 2.38542e-014
lhumerus -27.2666 9.06886 84.4887
lradius 25.269
lwrist -5.92425
lhand -18.4355 20.3026
lfingers 7.12502
lthumb 7.85005 50.1369
rfemur -15.9245 3.24294 25.0526
rtibia 30.3454
rfoot -3.06458 -9.6396
rtoes 3.17639
lfemur -20.0352 -0.486529 -18.723
ltibia 63.0741
lfoot -16.961 -0.0686078
ltoes -12.9847
